<svg width="20" height="20" viewBox="0 0 20 20" fill="none" xmlns="http://www.w3.org/2000/svg">
<mask id="mask0_5102_47057" style="mask-type:alpha" maskUnits="userSpaceOnUse" x="0" y="0" width="20" height="20">
<g clip-path="url(#clip0_5102_47057)">
<path d="M17.6346 1.6665H15.018L10.7346 6.58317L7.03464 1.6665H1.66797L8.08464 10.0665L2.0013 17.0165H4.6013L9.3013 11.6498L10.618 13.3665C10.618 12.9332 10.7346 12.4998 10.9513 12.1165C11.0346 11.9665 11.1346 11.8332 11.2513 11.6998L4.7013 3.14984H6.2513L12.218 11.0498C12.218 11.0498 12.3846 10.9665 12.468 10.9498C12.768 10.8832 13.068 10.8498 13.368 10.8832C13.4346 10.7165 13.5346 10.5665 13.6513 10.4165L11.9513 8.1665L17.6346 1.6665Z" fill="#545454"/>
<path d="M15.5172 18.3334C15.0505 18.3334 14.6838 17.9667 14.6838 17.5V16.95C14.4005 16.85 14.1338 16.7 13.9005 16.4834L13.4172 16.7667C13.0172 17 12.5172 16.8667 12.2838 16.4667C12.0505 16.0667 12.1838 15.5667 12.5838 15.3334L13.0672 15.05C13.0338 14.9 13.0172 14.75 13.0172 14.6C13.0172 14.45 13.0172 14.3 13.0505 14.15L12.5672 13.8667C12.1672 13.6334 12.0338 13.1334 12.2672 12.7334C12.5005 12.3334 13.0005 12.2 13.4005 12.4334L13.8838 12.7167C14.1172 12.5167 14.3838 12.3667 14.6672 12.25V11.7C14.6672 11.2334 15.0338 10.8667 15.5005 10.8667C15.9672 10.8667 16.3338 11.2334 16.3338 11.7V12.2667C16.6172 12.3667 16.8838 12.5167 17.1172 12.7167L17.6005 12.4334C18.0005 12.2 18.5005 12.3334 18.7338 12.7334C18.9672 13.1334 18.8338 13.6334 18.4338 13.8667L17.9505 14.15C17.9838 14.3 18.0005 14.45 18.0005 14.6C18.0005 14.75 18.0005 14.9 17.9505 15.05L18.4338 15.3334C18.8338 15.5667 18.9672 16.0667 18.7338 16.4667C18.5005 16.8667 17.9838 17 17.6005 16.7667L17.1172 16.4834C16.8838 16.6834 16.6172 16.8334 16.3338 16.9334V17.5C16.3338 17.9667 15.9672 18.3334 15.5005 18.3334H15.5172ZM14.7838 14.1834C14.7172 14.3 14.6838 14.45 14.6838 14.5834C14.6838 14.8 14.7672 15.0167 14.9338 15.1667C15.2505 15.4834 15.8005 15.4834 16.1172 15.1667C16.1672 15.1167 16.2005 15.0667 16.2338 15.0167C16.2338 15.0167 16.2338 15.0167 16.2338 15C16.2338 15 16.2338 15 16.2338 14.9834C16.3005 14.8667 16.3338 14.7167 16.3338 14.5834C16.3338 14.45 16.3005 14.3167 16.2338 14.2C16.2338 14.2 16.2338 14.1834 16.2172 14.1667C16.2172 14.1667 16.2172 14.15 16.2172 14.1334C16.1838 14.0834 16.1505 14.0334 16.1005 13.9834C15.7838 13.6667 15.2338 13.6667 14.9172 13.9834C14.8672 14.0334 14.8338 14.0834 14.7838 14.15V14.1834Z" fill="#545454"/>
<path d="M15.0167 15.3496H15C15 15.3496 15.0333 15.3996 15.05 15.4163C15.05 15.3996 15.0167 15.3829 15.0167 15.3496Z" fill="#545454"/>
</g>
</mask>
<g mask="url(#mask0_5102_47057)">
<rect width="20" height="20" fill="url(#paint0_linear_5102_47057)"/>
</g>
<defs>
<linearGradient id="paint0_linear_5102_47057" x1="10" y1="0" x2="10" y2="20" gradientUnits="userSpaceOnUse">
<stop stop-color="#BCAA88"/>
<stop offset="1" stop-color="#5B4438"/>
</linearGradient>
<clipPath id="clip0_5102_47057">
<rect width="17.2167" height="16.6667" fill="white" transform="translate(1.66797 1.6665)"/>
</clipPath>
</defs>
</svg>
