<svg width="21" height="20" viewBox="0 0 21 20" fill="none" xmlns="http://www.w3.org/2000/svg">
<mask id="mask0_5102_46865" style="mask-type:alpha" maskUnits="userSpaceOnUse" x="0" y="0" width="21" height="20">
<path d="M8 4.99979C8 4.28979 8.82167 3.91896 9.3525 4.34729L9.4225 4.41063L14.4225 9.41063C14.566 9.55412 14.6522 9.74504 14.6649 9.94756C14.6776 10.1501 14.616 10.3503 14.4917 10.5106L14.4225 10.589L9.4225 15.589L9.34417 15.6581L9.28 15.7031L9.2 15.7481L9.17 15.7623L9.11417 15.7848L9.02417 15.8115L8.98 15.8198L8.93 15.8281L8.8825 15.8315L8.83333 15.8331L8.78417 15.8315L8.73583 15.8273L8.68583 15.8198L8.6425 15.8115L8.5525 15.7848L8.49667 15.7623L8.38667 15.704L8.31167 15.6498L8.24417 15.589L8.175 15.5106L8.13 15.4465L8.085 15.3665L8.07083 15.3365L8.04833 15.2806L8.02167 15.1906L8.01333 15.1465L8.005 15.0965L8.00167 15.049L8 4.99979Z" fill="#545454"/>
</mask>
<g mask="url(#mask0_5102_46865)">
<rect x="0.5" width="20" height="20" fill="url(#paint0_linear_5102_46865)"/>
</g>
<defs>
<linearGradient id="paint0_linear_5102_46865" x1="10.5" y1="0" x2="10.5" y2="20" gradientUnits="userSpaceOnUse">
<stop stop-color="#BCAA88"/>
<stop offset="1" stop-color="#5B4438"/>
</linearGradient>
</defs>
</svg>
