<svg width="21" height="20" viewBox="0 0 21 20" fill="none" xmlns="http://www.w3.org/2000/svg">
<mask id="mask0_5218_26637" style="mask-type:alpha" maskUnits="userSpaceOnUse" x="0" y="0" width="21" height="20">
<path d="M3.7036 3.20396C3.25309 3.65451 3 4.26556 3 4.90271C3 5.53986 3.25309 6.15091 3.7036 6.60146L5.0261 7.92479L5.05777 7.89146L8.3911 4.55813L8.42444 4.52646L7.1011 3.20396C6.65055 2.75345 6.0395 2.50036 5.40235 2.50036C4.76521 2.50036 4.15415 2.75345 3.7036 3.20396ZM9.3061 5.40813L9.27443 5.44146L5.9411 8.77479L5.90777 8.80646L13.8978 16.7965C14.351 17.2345 14.9582 17.477 15.5885 17.4716C16.2187 17.4662 16.8217 17.2135 17.2674 16.7678C17.7131 16.3221 17.9659 15.7191 17.9712 15.0888C17.9766 14.4585 17.7341 13.8514 17.2961 13.3981L9.3061 5.40813ZM13.9161 1.92229C13.9455 1.84679 13.9971 1.78193 14.064 1.7362C14.1309 1.69048 14.2101 1.66602 14.2911 1.66602C14.3721 1.66602 14.4513 1.69048 14.5182 1.7362C14.5851 1.78193 14.6367 1.84679 14.6661 1.92229L15.0244 2.83479C15.0444 2.88647 15.0748 2.93345 15.1138 2.97275C15.1528 3.01206 15.1996 3.04283 15.2511 3.06313L16.1603 3.42313C16.2356 3.45312 16.3001 3.505 16.3456 3.57208C16.3911 3.63915 16.4154 3.71833 16.4154 3.79938C16.4154 3.88042 16.3911 3.9596 16.3456 4.02667C16.3001 4.09375 16.2356 4.14564 16.1603 4.17563L15.2519 4.53563C15.2008 4.55657 15.1544 4.58748 15.1153 4.62653C15.0763 4.66559 15.0454 4.71202 15.0244 4.76313L14.6661 5.67479C14.6367 5.7503 14.5851 5.81515 14.5182 5.86088C14.4513 5.90661 14.3721 5.93107 14.2911 5.93107C14.2101 5.93107 14.1309 5.90661 14.064 5.86088C13.9971 5.81515 13.9455 5.7503 13.9161 5.67479L13.5578 4.76229C13.5368 4.71119 13.5059 4.66475 13.4669 4.6257C13.4278 4.58664 13.3814 4.55574 13.3303 4.53479L12.4219 4.17479C12.3466 4.1448 12.2821 4.09292 12.2366 4.02584C12.1911 3.95876 12.1668 3.87958 12.1668 3.79854C12.1668 3.7175 12.1911 3.63832 12.2366 3.57125C12.2821 3.50417 12.3466 3.45228 12.4219 3.42229L13.3303 3.06229C13.3815 3.04125 13.4279 3.01022 13.467 2.97101C13.5061 2.93181 13.5369 2.88522 13.5578 2.83396L13.9161 1.92229ZM17.1386 7.60813C17.168 7.53262 17.2196 7.46776 17.2865 7.42204C17.3534 7.37631 17.4326 7.35185 17.5136 7.35185C17.5946 7.35185 17.6738 7.37631 17.7407 7.42204C17.8076 7.46776 17.8592 7.53262 17.8886 7.60813L18.0186 7.94063C18.0603 8.04479 18.1419 8.12729 18.2461 8.16813L18.5778 8.29979C18.6528 8.32992 18.7171 8.38181 18.7624 8.44879C18.8077 8.51577 18.8319 8.59477 18.8319 8.67563C18.8319 8.75648 18.8077 8.83548 18.7624 8.90246C18.7171 8.96944 18.6528 9.02133 18.5778 9.05146L18.2461 9.18313C18.195 9.20407 18.1486 9.23498 18.1095 9.27403C18.0705 9.31309 18.0396 9.35952 18.0186 9.41062L17.8886 9.74396C17.8592 9.81946 17.8076 9.88432 17.7407 9.93005C17.6738 9.97577 17.5946 10.0002 17.5136 10.0002C17.4326 10.0002 17.3534 9.97577 17.2865 9.93005C17.2196 9.88432 17.168 9.81946 17.1386 9.74396L17.0078 9.41062C16.9869 9.3596 16.9561 9.31321 16.9172 9.27416C16.8783 9.23511 16.8321 9.20417 16.7811 9.18313L16.4494 9.05146C16.3744 9.02133 16.3101 8.96944 16.2648 8.90246C16.2195 8.83548 16.1953 8.75648 16.1953 8.67563C16.1953 8.59477 16.2195 8.51577 16.2648 8.44879C16.3101 8.38181 16.3744 8.32992 16.4494 8.29979L16.7811 8.16813C16.8321 8.14708 16.8783 8.11614 16.9172 8.07709C16.9561 8.03804 16.9869 7.99165 17.0078 7.94063L17.1386 7.60813ZM4.77694 12.7556C4.80638 12.6801 4.85792 12.6153 4.92483 12.5695C4.99174 12.5238 5.07089 12.4993 5.15194 12.4993C5.23298 12.4993 5.31213 12.5238 5.37904 12.5695C5.44595 12.6153 5.49749 12.6801 5.52694 12.7556L5.65777 13.089C5.67778 13.1405 5.70826 13.1873 5.74727 13.2265C5.78628 13.2656 5.83299 13.2963 5.88443 13.3165L6.2161 13.4473C6.29139 13.4773 6.35595 13.5292 6.40143 13.5962C6.44692 13.6633 6.47123 13.7425 6.47123 13.8235C6.47123 13.9046 6.44692 13.9838 6.40143 14.0508C6.35595 14.1179 6.29139 14.1698 6.2161 14.1998L5.88443 14.3315C5.83299 14.3517 5.78628 14.3823 5.74727 14.4215C5.70826 14.4606 5.67778 14.5074 5.65777 14.559L5.52694 14.8923C5.49749 14.9678 5.44595 15.0327 5.37904 15.0784C5.31213 15.1241 5.23298 15.1486 5.15194 15.1486C5.07089 15.1486 4.99174 15.1241 4.92483 15.0784C4.85792 15.0327 4.80638 14.9678 4.77694 14.8923L4.6461 14.559C4.62609 14.5074 4.59561 14.4606 4.5566 14.4215C4.51759 14.3823 4.47089 14.3517 4.41944 14.3315L4.08777 14.1998C4.01248 14.1698 3.94792 14.1179 3.90244 14.0508C3.85695 13.9838 3.83264 13.9046 3.83264 13.8235C3.83264 13.7425 3.85695 13.6633 3.90244 13.5962C3.94792 13.5292 4.01248 13.4773 4.08777 13.4473L4.41944 13.3165C4.47097 13.2962 4.51772 13.2654 4.55674 13.2261C4.59576 13.1868 4.62619 13.1398 4.6461 13.0881L4.77694 12.7556Z" fill="#545454"/>
</mask>
<g mask="url(#mask0_5218_26637)">
<rect x="0.5" width="20" height="20" fill="url(#paint0_linear_5218_26637)"/>
</g>
<defs>
<linearGradient id="paint0_linear_5218_26637" x1="10.5" y1="0" x2="10.5" y2="20" gradientUnits="userSpaceOnUse">
<stop stop-color="#BCAA88"/>
<stop offset="1" stop-color="#5B4438"/>
</linearGradient>
</defs>
</svg>
