<svg width="20" height="20" viewBox="0 0 20 20" fill="none" xmlns="http://www.w3.org/2000/svg">
<mask id="mask0_5102_47063" style="mask-type:alpha" maskUnits="userSpaceOnUse" x="0" y="0" width="20" height="20">
<g clip-path="url(#clip0_5102_47063)">
<path d="M15.7984 18.1166C15.3317 18.1166 14.9651 17.7499 14.9651 17.2832V16.7332C14.6817 16.6332 14.4151 16.4832 14.1817 16.2666L13.6984 16.5499C13.2984 16.7832 12.7984 16.6499 12.5651 16.2499C12.3317 15.8499 12.4651 15.3499 12.8651 15.1166L13.3484 14.8332C13.3151 14.6832 13.2984 14.5332 13.2984 14.3832C13.2984 14.2332 13.2984 14.0832 13.3317 13.9332L12.8484 13.6499C12.4484 13.4166 12.3151 12.9166 12.5484 12.5166C12.7817 12.1166 13.2817 11.9832 13.6817 12.2166L14.1651 12.4999C14.3984 12.2999 14.6651 12.1499 14.9484 12.0332V11.4832C14.9484 11.0166 15.3151 10.6499 15.7817 10.6499C16.2484 10.6499 16.6151 11.0166 16.6151 11.4832V12.0499C16.8984 12.1499 17.1651 12.2999 17.3984 12.4999L17.8817 12.2166C18.2817 11.9832 18.7817 12.1166 19.0151 12.5166C19.2484 12.9166 19.1151 13.4166 18.7151 13.6499L18.2317 13.9332C18.2651 14.0832 18.2817 14.2332 18.2817 14.3832C18.2817 14.5332 18.2817 14.6832 18.2317 14.8332L18.7151 15.1166C19.1151 15.3499 19.2484 15.8499 19.0151 16.2499C18.7817 16.6499 18.2651 16.7832 17.8817 16.5499L17.3984 16.2666C17.1651 16.4666 16.8984 16.6166 16.6151 16.7166V17.2832C16.6151 17.7499 16.2484 18.1166 15.7817 18.1166H15.7984ZM15.0817 13.9499C15.0151 14.0666 14.9817 14.2166 14.9817 14.3499C14.9817 14.5666 15.0651 14.7832 15.2317 14.9332C15.5484 15.2499 16.0984 15.2499 16.4151 14.9332C16.4651 14.8832 16.4984 14.8332 16.5317 14.7832C16.5317 14.7832 16.5317 14.7832 16.5317 14.7666C16.5317 14.7666 16.5317 14.7666 16.5317 14.7499C16.5984 14.6332 16.6317 14.4832 16.6317 14.3499C16.6317 14.2166 16.5984 14.0832 16.5317 13.9666C16.5317 13.9666 16.5317 13.9499 16.5151 13.9332C16.5151 13.9332 16.5151 13.9166 16.5151 13.8999C16.4817 13.8499 16.4484 13.7999 16.3984 13.7499C16.0817 13.4332 15.5317 13.4332 15.2151 13.7499C15.1651 13.7999 15.1317 13.8499 15.0817 13.9166V13.9499Z" fill="#545454"/>
<path d="M15.3018 15.1333H15.2852C15.2852 15.1333 15.3185 15.1833 15.3352 15.2C15.3352 15.1833 15.3018 15.1666 15.3018 15.1333Z" fill="#545454"/>
<path d="M15.9833 8.56667L17.5 2.5L2.5 8.33333L5.83333 10L7.5 15L10 11.6667" stroke="#545454" stroke-width="2" stroke-linecap="round" stroke-linejoin="round"/>
<path d="M12.5013 7.5L9.16797 10.8333L10.8346 12.4167" stroke="#545454" stroke-width="2" stroke-linecap="round" stroke-linejoin="round"/>
</g>
</mask>
<g mask="url(#mask0_5102_47063)">
<rect width="20" height="20" fill="url(#paint0_linear_5102_47063)"/>
</g>
<defs>
<linearGradient id="paint0_linear_5102_47063" x1="10" y1="0" x2="10" y2="20" gradientUnits="userSpaceOnUse">
<stop stop-color="#BCAA88"/>
<stop offset="1" stop-color="#5B4438"/>
</linearGradient>
<clipPath id="clip0_5102_47063">
<rect width="17.5" height="16.45" fill="white" transform="translate(1.66797 1.6665)"/>
</clipPath>
</defs>
</svg>
