<svg width="21" height="20" viewBox="0 0 21 20" fill="none" xmlns="http://www.w3.org/2000/svg">
<mask id="mask0_5102_46870" style="mask-type:alpha" maskUnits="userSpaceOnUse" x="0" y="0" width="21" height="20">
<path d="M8.86387 6.41501C7.48803 7.96584 5.92803 10.2033 4.5797 12.9017C4.4808 13.0995 4.30737 13.2499 4.09756 13.3198C3.88775 13.3898 3.65876 13.3735 3.46095 13.2746C3.26314 13.1757 3.11273 13.0023 3.04279 12.7924C2.97286 12.5826 2.98913 12.3536 3.08803 12.1558C4.49803 9.33667 6.13803 6.97667 7.61637 5.30917C8.3547 4.47667 9.06637 3.80084 9.7047 3.32584C10.023 3.08834 10.338 2.89001 10.6405 2.74834C10.933 2.61001 11.268 2.50001 11.6122 2.50001C11.8055 2.49928 11.9951 2.55278 12.1595 2.65442C12.3239 2.75607 12.4565 2.90178 12.5422 3.07501C12.673 3.33501 12.6872 3.61251 12.6839 3.80001C12.6772 4.19751 12.5714 4.69417 12.4355 5.20001C12.1564 6.23584 11.6664 7.60917 11.1797 8.96501L11.1114 9.15501C10.6397 10.4667 10.1755 11.7575 9.87387 12.7883C9.79276 13.0667 9.72637 13.3153 9.6747 13.5342C10.253 13.07 10.9664 12.3708 11.7222 11.6275L11.7472 11.6033C12.4814 10.8817 13.2589 10.1183 13.9139 9.59417C14.2397 9.33417 14.5905 9.08667 14.9289 8.94417C15.2122 8.82334 15.8622 8.62751 16.368 9.13334C16.688 9.45334 16.7764 9.87001 16.7997 10.18C16.8247 10.505 16.7864 10.855 16.7272 11.1883C16.6105 11.855 16.3739 12.6325 16.158 13.3342L16.1239 13.4467C15.9305 14.0725 15.7589 14.6317 15.6614 15.08C15.878 14.8633 16.1447 14.5183 16.4564 14.0092C16.5135 13.9158 16.5886 13.8347 16.6771 13.7703C16.7657 13.7059 16.866 13.6596 16.9725 13.6341C17.0789 13.6085 17.1893 13.6041 17.2974 13.6212C17.4056 13.6383 17.5093 13.6766 17.6026 13.7338C17.696 13.7909 17.7771 13.8659 17.8415 13.9545C17.9059 14.043 17.9521 14.1434 17.9777 14.2498C18.0033 14.3563 18.0077 14.4667 17.9906 14.5748C17.9734 14.683 17.9352 14.7867 17.878 14.88C17.4255 15.6183 16.9572 16.2183 16.4605 16.5908C15.9405 16.9808 15.2605 17.2008 14.5722 16.8567C14.0655 16.6025 13.9505 16.0983 13.9247 15.8183C13.8972 15.5158 13.9414 15.1858 13.9989 14.8892C14.1072 14.3283 14.3197 13.6417 14.5197 12.9925L14.5655 12.8442C14.788 12.1208 14.9905 11.445 15.0864 10.8992L15.1064 10.7783L14.9555 10.895C14.3739 11.3608 13.6547 12.0658 12.8905 12.8167L12.8655 12.8417C12.1314 13.5625 11.3539 14.3267 10.6989 14.85C10.373 15.1108 10.0222 15.3583 9.68387 15.5008C9.40053 15.6217 8.75053 15.8175 8.2447 15.3117C7.9872 15.0542 7.92137 14.7292 7.90053 14.5317C7.88122 14.3086 7.88765 14.0841 7.9197 13.8625C7.97637 13.4225 8.10803 12.8875 8.2747 12.3208C8.59137 11.2392 9.07053 9.90417 9.5347 8.61334L9.61137 8.40084C10.1055 7.02417 10.5689 5.72251 10.8255 4.76751L10.8872 4.52917C10.8241 4.57239 10.7619 4.61684 10.7005 4.66251C10.1814 5.04917 9.55303 5.63751 8.86387 6.41501Z" fill="#545454"/>
</mask>
<g mask="url(#mask0_5102_46870)">
<rect x="0.5" width="20" height="20" fill="url(#paint0_linear_5102_46870)"/>
</g>
<defs>
<linearGradient id="paint0_linear_5102_46870" x1="10.5" y1="0" x2="10.5" y2="20" gradientUnits="userSpaceOnUse">
<stop stop-color="#BCAA88"/>
<stop offset="1" stop-color="#5B4438"/>
</linearGradient>
</defs>
</svg>
