<svg width="20" height="20" viewBox="0 0 20 20" fill="none" xmlns="http://www.w3.org/2000/svg">
<mask id="mask0_7351_52278" style="mask-type:alpha" maskUnits="userSpaceOnUse" x="0" y="0" width="20" height="20">
<mask id="path-1-inside-1_7351_52278" fill="white">
<path d="M17.083 12.9167H2.91797V17.0834H17.083V12.9167ZM18.2888 12.06L18.3063 12.1117L18.3255 12.195L18.3338 12.2784V17.7084C18.3337 17.8597 18.2788 18.0058 18.1792 18.1196C18.0796 18.2335 17.9421 18.3074 17.7921 18.3275L17.7088 18.3334H2.29297C2.14194 18.3334 1.99602 18.2787 1.88219 18.1794C1.76837 18.0801 1.69434 17.943 1.6738 17.7934L1.66797 17.7084V12.2917L1.66964 12.2484L1.67797 12.1767C1.6876 12.1332 1.70069 12.0906 1.71714 12.0492L4.01714 7.03338C4.06052 6.93856 4.12693 6.8561 4.21034 6.79352C4.29374 6.73093 4.39147 6.6902 4.49464 6.67505L4.58464 6.66922L6.7013 6.66838L6.04297 7.81005L5.98714 7.91838H4.98464L3.2663 11.6667H16.7263L15.0371 8.04505L15.7555 6.79755C15.8116 6.83977 15.8594 6.89088 15.8988 6.95088L15.943 7.03005L18.2888 12.06ZM11.1388 1.71338L11.2155 1.75088L15.5388 4.25338C15.8121 4.41172 15.9205 4.74588 15.8046 5.03088L15.7671 5.10755L13.428 9.16672H14.3763C14.5358 9.16509 14.6898 9.2245 14.807 9.33277C14.9241 9.44105 14.9953 9.58999 15.0062 9.74911C15.0171 9.90823 14.9667 10.0655 14.8654 10.1887C14.7641 10.3119 14.6195 10.3916 14.4613 10.4117L14.3763 10.4175L12.708 10.4167V10.4192H9.3088L9.3063 10.4167H5.6263C5.46894 10.4152 5.31792 10.3545 5.20342 10.2465C5.08891 10.1386 5.01935 9.99137 5.00861 9.83437C4.99788 9.67737 5.04677 9.52209 5.14552 9.39956C5.24427 9.27703 5.3856 9.19626 5.5413 9.17338L5.6263 9.16755L7.14547 9.16672L6.9938 9.07922C6.86316 9.00349 6.76435 8.88304 6.71564 8.74011C6.66692 8.59719 6.6716 8.44146 6.7288 8.30172L6.76547 8.22505L10.363 1.97838C10.5213 1.70422 10.8546 1.59505 11.1388 1.71172M11.1305 3.14505L8.1588 8.30838L9.64047 9.16672H11.988L14.3755 5.02255L11.1305 3.14505Z"/>
</mask>
<path d="M17.083 12.9167H2.91797V17.0834H17.083V12.9167ZM18.2888 12.06L18.3063 12.1117L18.3255 12.195L18.3338 12.2784V17.7084C18.3337 17.8597 18.2788 18.0058 18.1792 18.1196C18.0796 18.2335 17.9421 18.3074 17.7921 18.3275L17.7088 18.3334H2.29297C2.14194 18.3334 1.99602 18.2787 1.88219 18.1794C1.76837 18.0801 1.69434 17.943 1.6738 17.7934L1.66797 17.7084V12.2917L1.66964 12.2484L1.67797 12.1767C1.6876 12.1332 1.70069 12.0906 1.71714 12.0492L4.01714 7.03338C4.06052 6.93856 4.12693 6.8561 4.21034 6.79352C4.29374 6.73093 4.39147 6.6902 4.49464 6.67505L4.58464 6.66922L6.7013 6.66838L6.04297 7.81005L5.98714 7.91838H4.98464L3.2663 11.6667H16.7263L15.0371 8.04505L15.7555 6.79755C15.8116 6.83977 15.8594 6.89088 15.8988 6.95088L15.943 7.03005L18.2888 12.06ZM11.1388 1.71338L11.2155 1.75088L15.5388 4.25338C15.8121 4.41172 15.9205 4.74588 15.8046 5.03088L15.7671 5.10755L13.428 9.16672H14.3763C14.5358 9.16509 14.6898 9.2245 14.807 9.33277C14.9241 9.44105 14.9953 9.58999 15.0062 9.74911C15.0171 9.90823 14.9667 10.0655 14.8654 10.1887C14.7641 10.3119 14.6195 10.3916 14.4613 10.4117L14.3763 10.4175L12.708 10.4167V10.4192H9.3088L9.3063 10.4167H5.6263C5.46894 10.4152 5.31792 10.3545 5.20342 10.2465C5.08891 10.1386 5.01935 9.99137 5.00861 9.83437C4.99788 9.67737 5.04677 9.52209 5.14552 9.39956C5.24427 9.27703 5.3856 9.19626 5.5413 9.17338L5.6263 9.16755L7.14547 9.16672L6.9938 9.07922C6.86316 9.00349 6.76435 8.88304 6.71564 8.74011C6.66692 8.59719 6.6716 8.44146 6.7288 8.30172L6.76547 8.22505L10.363 1.97838C10.5213 1.70422 10.8546 1.59505 11.1388 1.71172M11.1305 3.14505L8.1588 8.30838L9.64047 9.16672H11.988L14.3755 5.02255L11.1305 3.14505Z" fill="#545454"/>
<path d="M17.083 12.9167H19.083V10.9167H17.083V12.9167ZM2.91797 12.9167V10.9167H0.917969V12.9167H2.91797ZM2.91797 17.0834H0.917969V19.0834H2.91797V17.0834ZM17.083 17.0834V19.0834H19.083V17.0834H17.083ZM18.2888 12.06L20.1831 11.4184L20.1478 11.3143L20.1014 11.2147L18.2888 12.06ZM18.3063 12.1117L20.2554 11.6634L20.2329 11.5654L20.2006 11.4701L18.3063 12.1117ZM18.3255 12.195L20.3155 11.996L20.3029 11.8701L20.2746 11.7467L18.3255 12.195ZM18.3338 12.2784H20.3338V12.1786L20.3239 12.0794L18.3338 12.2784ZM18.3338 17.7084L20.3338 17.7092V17.7084H18.3338ZM17.7921 18.3275L17.9318 20.3227L17.9955 20.3182L18.0588 20.3097L17.7921 18.3275ZM17.7088 18.3334V20.3334H17.7787L17.8485 20.3285L17.7088 18.3334ZM2.29297 18.3334L2.29288 20.3334H2.29297V18.3334ZM1.6738 17.7934L-0.321505 17.9303L-0.316854 17.9981L-0.307616 18.0654L1.6738 17.7934ZM1.66797 17.7084H-0.332031V17.7769L-0.327338 17.8453L1.66797 17.7084ZM1.66797 12.2917L-0.330553 12.2148L-0.332031 12.2533V12.2917H1.66797ZM1.66964 12.2484L-0.316979 12.0174L-0.325914 12.0942L-0.328887 12.1715L1.66964 12.2484ZM1.67797 12.1767L-0.274727 11.7443L-0.296835 11.8441L-0.308646 11.9457L1.67797 12.1767ZM1.71714 12.0492L-0.100846 11.2156L-0.122437 11.2627L-0.141561 11.3108L1.71714 12.0492ZM4.01714 7.03338L5.83512 7.86701L5.83582 7.86548L4.01714 7.03338ZM4.49464 6.67505L4.36528 4.67924L4.28427 4.68449L4.20395 4.69629L4.49464 6.67505ZM4.58464 6.66922L4.58385 4.66922L4.5195 4.66924L4.45528 4.6734L4.58464 6.66922ZM6.7013 6.66838L8.43388 7.66746L10.1641 4.66702L6.70051 4.66838L6.7013 6.66838ZM6.04297 7.81005L4.31039 6.81097L4.28681 6.85186L4.26519 6.89381L6.04297 7.81005ZM5.98714 7.91838V9.91838H7.20636L7.76492 8.83462L5.98714 7.91838ZM4.98464 7.91838V5.91838H3.70135L3.16657 7.08493L4.98464 7.91838ZM3.2663 11.6667L1.44824 10.8333L0.14931 13.6667H3.2663V11.6667ZM16.7263 11.6667V13.6667H19.866L18.5388 10.8213L16.7263 11.6667ZM15.0371 8.04505L13.3039 7.04704L12.7851 7.94811L13.2246 8.89043L15.0371 8.04505ZM15.7555 6.79755L16.958 5.19945L15.1508 3.8396L14.0223 5.79954L15.7555 6.79755ZM15.8988 6.95088L17.6454 5.97648L17.61 5.91298L17.57 5.85222L15.8988 6.95088ZM15.943 7.03005L17.7555 6.18472L17.7249 6.11899L17.6896 6.05565L15.943 7.03005ZM11.2155 1.75088L12.2174 0.0199459L12.157 -0.0150343L12.0942 -0.0457147L11.2155 1.75088ZM15.5388 4.25338L16.5413 2.52277L16.5407 2.52245L15.5388 4.25338ZM15.8046 5.03088L17.6012 5.90965L17.6315 5.84776L17.6575 5.78393L15.8046 5.03088ZM15.7671 5.10755L17.5 6.10614L17.5339 6.04731L17.5637 5.98632L15.7671 5.10755ZM13.428 9.16672L11.6951 8.16812L9.96711 11.1667H13.428V9.16672ZM14.3763 9.16672V11.1667H14.3865L14.3966 11.1666L14.3763 9.16672ZM15.0062 9.74911L13.0109 9.88534L15.0062 9.74911ZM14.4613 10.4117L14.5982 12.407L14.6558 12.4031L14.713 12.3958L14.4613 10.4117ZM14.3763 10.4175L14.3753 12.4175L14.4444 12.4176L14.5132 12.4129L14.3763 10.4175ZM12.708 10.4167L12.709 8.41672L10.708 8.41572V10.4167H12.708ZM12.708 10.4192V12.4192H14.708V10.4192H12.708ZM9.3088 10.4192L7.89436 11.8332L8.48019 12.4192H9.3088V10.4192ZM9.3063 10.4167L10.7207 9.00273L10.1349 8.41672H9.3063V10.4167ZM5.6263 10.4167L5.60756 12.4166L5.61693 12.4167H5.6263V10.4167ZM5.5413 9.17338L5.40437 7.17808L5.32714 7.18338L5.25056 7.19463L5.5413 9.17338ZM5.6263 9.16755L5.6252 7.16755L5.55721 7.16759L5.48937 7.17224L5.6263 9.16755ZM7.14547 9.16672L7.14657 11.1667L14.6073 11.1626L8.14491 7.43434L7.14547 9.16672ZM6.9938 9.07922L5.99086 10.8096L5.99436 10.8116L6.9938 9.07922ZM6.7288 8.30172L4.92453 7.43881L4.89968 7.49077L4.87786 7.54407L6.7288 8.30172ZM6.76547 8.22505L5.03234 7.22692L4.99418 7.29317L4.9612 7.36214L6.76547 8.22505ZM10.363 1.97838L8.63104 0.978177L8.62984 0.980259L10.363 1.97838ZM11.1305 3.14505L12.1321 1.41392L10.397 0.410029L9.39706 2.14741L11.1305 3.14505ZM8.1588 8.30838L6.42539 7.31075L5.43057 9.03927L7.15627 10.039L8.1588 8.30838ZM9.64047 9.16672L8.63794 10.8973L9.103 11.1667H9.64047V9.16672ZM11.988 9.16672V11.1667H13.1439L13.7209 10.1651L11.988 9.16672ZM14.3755 5.02255L16.1084 6.02094L17.105 4.29117L15.3771 3.29142L14.3755 5.02255ZM17.083 10.9167H2.91797V14.9167H17.083V10.9167ZM0.917969 12.9167V17.0834H4.91797V12.9167H0.917969ZM2.91797 19.0834H17.083V15.0834H2.91797V19.0834ZM19.083 17.0834V12.9167H15.083V17.0834H19.083ZM16.3945 12.7017L16.412 12.7533L20.2006 11.4701L20.1831 11.4184L16.3945 12.7017ZM16.3572 12.56L16.3764 12.6434L20.2746 11.7467L20.2554 11.6634L16.3572 12.56ZM16.3354 12.3941L16.3437 12.4774L20.3239 12.0794L20.3155 11.996L16.3354 12.3941ZM16.3338 12.2784V17.7084H20.3338V12.2784H16.3338ZM16.3338 17.7076C16.3339 17.3748 16.4548 17.0533 16.6739 16.8028L19.6845 19.4365C20.1028 18.9583 20.3335 18.3446 20.3338 17.7092L16.3338 17.7076ZM16.6739 16.8028C16.8931 16.5523 17.1956 16.3898 17.5255 16.3454L18.0588 20.3097C18.6885 20.225 19.2661 19.9147 19.6845 19.4365L16.6739 16.8028ZM17.6525 16.3324L17.5691 16.3383L17.8485 20.3285L17.9318 20.3227L17.6525 16.3324ZM17.7088 16.3334H2.29297V20.3334H17.7088V16.3334ZM2.29305 16.3334C2.62532 16.3334 2.94634 16.4537 3.19676 16.6721L0.567627 19.6867C1.04569 20.1036 1.65856 20.3334 2.29288 20.3334L2.29305 16.3334ZM3.19676 16.6721C3.44717 16.8905 3.61003 17.1922 3.65522 17.5214L-0.307616 18.0654C-0.221347 18.6938 0.0895641 19.2698 0.567627 19.6867L3.19676 16.6721ZM3.66911 17.6564L3.66328 17.5714L-0.327338 17.8453L-0.321505 17.9303L3.66911 17.6564ZM3.66797 17.7084V12.2917H-0.332031V17.7084H3.66797ZM3.66649 12.3686L3.66816 12.3253L-0.328887 12.1715L-0.330553 12.2148L3.66649 12.3686ZM3.65625 12.4794L3.66458 12.4077L-0.308646 11.9457L-0.316979 12.0174L3.65625 12.4794ZM3.63066 12.6091C3.61719 12.67 3.59885 12.7297 3.57583 12.7876L-0.141561 11.3108C-0.197464 11.4515 -0.241994 11.5965 -0.274727 11.7443L3.63066 12.6091ZM3.53512 12.8828L5.83512 7.86701L2.19915 6.19975L-0.100846 11.2156L3.53512 12.8828ZM5.83582 7.86548C5.74038 8.07408 5.59426 8.25549 5.41078 8.39318L3.00989 5.19385C2.65961 5.45671 2.38066 5.80304 2.19845 6.20129L5.83582 7.86548ZM5.41078 8.39318C5.2273 8.53088 5.01228 8.62047 4.78532 8.65381L4.20395 4.69629C3.77066 4.75994 3.36017 4.93098 3.00989 5.19385L5.41078 8.39318ZM4.62399 8.67086L4.71399 8.66503L4.45528 4.6734L4.36528 4.67924L4.62399 8.67086ZM4.58542 8.66922L6.70209 8.66838L6.70051 4.66838L4.58385 4.66922L4.58542 8.66922ZM4.96872 5.6693L4.31039 6.81097L7.77555 8.80913L8.43388 7.66746L4.96872 5.6693ZM4.26519 6.89381L4.20935 7.00214L7.76492 8.83462L7.82075 8.72629L4.26519 6.89381ZM5.98714 5.91838H4.98464V9.91838H5.98714V5.91838ZM3.16657 7.08493L1.44824 10.8333L5.08437 12.5002L6.8027 8.75183L3.16657 7.08493ZM3.2663 13.6667H16.7263V9.66672H3.2663V13.6667ZM18.5388 10.8213L16.8497 7.19967L13.2246 8.89043L14.9138 12.5121L18.5388 10.8213ZM16.7703 9.04306L17.4887 7.79556L14.0223 5.79954L13.3039 7.04704L16.7703 9.04306ZM14.5529 8.39565C14.4211 8.29644 14.3116 8.17732 14.2276 8.04955L17.57 5.85222C17.4071 5.60444 17.2021 5.3831 16.958 5.19945L14.5529 8.39565ZM14.1522 7.92528L14.1964 8.00445L17.6896 6.05565L17.6454 5.97648L14.1522 7.92528ZM14.1304 7.87538L16.4762 12.9054L20.1014 11.2147L17.7555 6.18472L14.1304 7.87538ZM10.26 3.50998L10.3367 3.54748L12.0942 -0.0457147L12.0176 -0.0832147L10.26 3.50998ZM10.2135 3.48182L14.5369 5.98432L16.5407 2.52245L12.2174 0.0199459L10.2135 3.48182ZM14.5363 5.98399C13.9307 5.63317 13.699 4.89989 13.9518 4.27784L17.6575 5.78393C18.1419 4.59187 17.6936 3.19026 16.5413 2.52277L14.5363 5.98399ZM14.008 4.15211L13.9705 4.22878L17.5637 5.98632L17.6012 5.90965L14.008 4.15211ZM14.0343 4.10896L11.6951 8.16812L15.1608 10.1653L17.5 6.10614L14.0343 4.10896ZM13.428 11.1667H14.3763V7.16672H13.428V11.1667ZM14.3966 11.1666C14.0458 11.1702 13.7068 11.0395 13.4492 10.8013L16.1647 7.86427C15.6729 7.40952 15.0258 7.16001 14.356 7.16682L14.3966 11.1666ZM13.4492 10.8013C13.1916 10.5631 13.0348 10.2354 13.0109 9.88534L17.0016 9.61288C16.9559 8.94459 16.6565 8.31902 16.1647 7.86427L13.4492 10.8013ZM13.0109 9.88534C12.987 9.53528 13.0978 9.18933 13.3206 8.91832L16.4101 11.459C16.8356 10.9416 17.0472 10.2812 17.0016 9.61288L13.0109 9.88534ZM13.3206 8.91832C13.5435 8.64732 13.8616 8.47176 14.2096 8.42761L14.713 12.3958C15.3775 12.3115 15.9847 11.9764 16.4101 11.459L13.3206 8.91832ZM14.3244 8.41641L14.2394 8.42224L14.5132 12.4129L14.5982 12.407L14.3244 8.41641ZM14.3773 8.41755L12.709 8.41672L12.707 12.4167L14.3753 12.4175L14.3773 8.41755ZM10.708 10.4167V10.4192H14.708V10.4167H10.708ZM12.708 8.41922H9.3088V12.4192H12.708V8.41922ZM10.7232 9.00523L10.7207 9.00273L7.89186 11.8307L7.89436 11.8332L10.7232 9.00523ZM9.3063 8.41672H5.6263V12.4167H9.3063V8.41672ZM5.64504 8.4168C5.99124 8.42005 6.32347 8.55377 6.57539 8.79127L3.83145 11.7017C4.31237 12.1551 4.94664 12.4104 5.60756 12.4166L5.64504 8.4168ZM6.57539 8.79127C6.8273 9.02877 6.98034 9.35256 7.00396 9.69796L3.01327 9.97078C3.05835 10.6302 3.35053 11.2483 3.83145 11.7017L6.57539 8.79127ZM7.00396 9.69796C7.02757 10.0434 6.92001 10.385 6.70277 10.6545L3.58827 8.14458C3.17353 8.65922 2.96819 9.31137 3.01327 9.97078L7.00396 9.69796ZM6.70277 10.6545C6.48552 10.9241 6.17457 11.1018 5.83204 11.1521L5.25056 7.19463C4.59663 7.29071 4.00301 7.62994 3.58827 8.14458L6.70277 10.6545ZM5.67823 11.1687L5.76323 11.1629L5.48937 7.17224L5.40437 7.17808L5.67823 11.1687ZM5.6274 11.1675L7.14657 11.1667L7.14437 7.16672L5.6252 7.16755L5.6274 11.1675ZM8.14491 7.43434L7.99324 7.34684L5.99436 10.8116L6.14603 10.8991L8.14491 7.43434ZM7.99674 7.34886C8.28415 7.51545 8.50153 7.78046 8.6087 8.09489L4.82258 9.38534C5.02717 9.98562 5.44217 10.4915 5.99086 10.8096L7.99674 7.34886ZM8.6087 8.09489C8.71587 8.40932 8.70558 8.75192 8.57974 9.05936L4.87786 7.54407C4.63762 8.131 4.61798 8.78506 4.82258 9.38534L8.6087 8.09489ZM8.53307 9.16462L8.56974 9.08795L4.9612 7.36214L4.92453 7.43881L8.53307 9.16462ZM8.4986 9.22317L12.0961 2.97651L8.62984 0.980259L5.03234 7.22692L8.4986 9.22317ZM12.0949 2.97859C11.7489 3.57771 11.0145 3.82268 10.3792 3.56186L11.8984 -0.138426C10.6948 -0.632579 9.2937 -0.169274 8.63104 0.978178L12.0949 2.97859ZM9.39706 2.14741L6.42539 7.31075L9.89222 9.30602L12.8639 4.14268L9.39706 2.14741ZM7.15627 10.039L8.63794 10.8973L10.643 7.43613L9.16133 6.5778L7.15627 10.039ZM9.64047 11.1667H11.988V7.16672H9.64047V11.1667ZM13.7209 10.1651L16.1084 6.02094L12.6425 4.02416L10.255 8.16833L13.7209 10.1651ZM15.3771 3.29142L12.1321 1.41392L10.1289 4.87618L13.3739 6.75368L15.3771 3.29142Z" fill="#545454" mask="url(#path-1-inside-1_7351_52278)"/>
</mask>
<g mask="url(#mask0_7351_52278)">
<rect width="20" height="20" fill="#363636"/>
</g>
</svg>
